<svg xmlns="http://www.w3.org/2000/svg" version="1.1"
  xmlns:xlink="http://www.w3.org/1999/xlink"
  xmlns:svgjs="http://svgjs.com/svgjs" width="270" height="270"><svg width="270"
    height="270" viewBox="0 0 270 270" fill="none"
    xmlns="http://www.w3.org/2000/svg">
    <path d="M0 0H270V270H8C3.58173 270 0 266.418 0 262V0Z" fill="#233DE0" id="first">
    </path>
    <g clip-path="url(#clip0_3199_5717)">
      <path
        d="M173.564 89.3809C171.966 89.3809 170.165 89.4137 168.156 89.4509C163.385 89.5397 157.45 89.6499 150.25 89.3809H124.137C124.026 89.3809 123.925 89.3894 123.789 89.4038C117.229 89.5784 115.853 93.5267 115.853 96.8097V101.066C115.853 104.512 117.327 108.619 124.349 108.619H150.608C169.132 108.619 174.135 108.595 174.135 124.422H105.81C93.3812 124.422 85.2781 126.784 80.3898 131.467C80.351 131.504 80.3087 131.539 80.2704 131.576C75.9694 135.773 74.2059 141.806 74.2047 149.652L74.1765 153.339C74.1765 153.339 74.1765 153.339 74.1765 153.34L74.1746 153.608C74.1746 165.762 80.751 180.238 112.084 180.238H155.996C181.966 180.238 195.135 170.858 195.135 152.36V107.154C195.135 98.0175 184.651 89.3809 173.564 89.3809ZM171.405 158.026C169.82 159.424 165.885 161.091 156.142 161.091H111.997C108.533 161.091 105.751 161.062 103.542 160.854C103.153 160.818 102.782 160.775 102.428 160.726C101.546 160.605 100.772 160.443 100.096 160.229C99.7534 160.12 99.4362 159.998 99.1429 159.861C99.0169 159.802 98.8952 159.74 98.7779 159.675C98.3557 159.442 97.9866 159.173 97.6732 158.858C96.8619 158.041 96.4008 156.927 96.2157 155.408C96.1504 154.874 96.1182 154.291 96.1182 153.651V150.334C96.1182 149.221 96.1216 148.129 96.6379 147.165C97.6767 145.226 100.808 143.807 110.23 143.785H110.232C110.304 143.785 110.371 143.784 110.444 143.784H174.204L174.216 147.753C174.216 152.974 173.276 156.424 171.405 158.026Z"
        fill="white" id="second"></path>
    </g>
    <defs>
      <clipPath id="SvgjsClipPath1000">
        <rect width="120.96" height="90.8567" fill="white"
          transform="translate(74.1746 89.3809)"></rect>
      </clipPath>
    </defs>
  </svg>
  <style>
    @media (prefers-color-scheme: light) {
      :root {
        filter: none;
      }
      #first {
        fill: #233DE0;
      }
      #second {
        fill: #fff;
      }
    }

    @media (prefers-color-scheme: dark) {
      :root {
        filter: none;
      }
      #first {
        fill: #fff;
      }
      #second {
        fill: #233DE0;
      }
    }

  </style>
</svg>
